<svg xmlns="http://www.w3.org/2000/svg" version="1.1" xmlns:xlink="http://www.w3.org/1999/xlink" xmlns:svgjs="http://svgjs.dev/svgjs" width="1000" height="623" viewBox="0 0 1000 623"><g transform="matrix(1,0,0,1,-0.6060606060606233,0.2522267206477409)"><svg viewBox="0 0 396 247" data-background-color="#636365" preserveAspectRatio="xMidYMid meet" height="623" width="1000" xmlns="http://www.w3.org/2000/svg" xmlns:xlink="http://www.w3.org/1999/xlink"><g id="tight-bounds" transform="matrix(1,0,0,1,0.2400000000000091,-0.09999999999999432)"><svg viewBox="0 0 395.52 247.2" height="247.2" width="395.52"><g><svg></svg></g><g><svg viewBox="0 0 395.52 247.2" height="247.2" width="395.52"><g transform="matrix(1,0,0,1,75.54432,85.6924246779661)"><svg viewBox="0 0 244.43135999999998 75.81515064406778" height="75.81515064406778" width="244.43135999999998"><g><svg viewBox="0 0 244.43135999999998 75.81515064406778" height="75.81515064406778" width="244.43135999999998"><g><svg viewBox="0 0 244.43135999999998 75.81515064406778" height="75.81515064406778" width="244.43135999999998"><g><svg viewBox="0 0 244.43135999999998 75.81515064406778" height="75.81515064406778" width="244.43135999999998"><g id="textblocktransform"><svg viewBox="0 0 244.43135999999998 75.81515064406778" height="75.81515064406778" width="244.43135999999998" id="textblock"><g><svg viewBox="0 0 244.43135999999998 75.81515064406778" height="75.81515064406778" width="244.43135999999998"><g transform="matrix(1,0,0,1,0,0)"><svg width="244.43135999999998" viewBox="3.549999952316284 -36 117.98999786376953 36.599998474121094" height="75.81515064406778" data-palette-color="#ffffff"><path d="M8.85 0L3.55 0 3.55-35 25.5-35 25.5-30.7 8.85-30.7 8.85-19.65 22.65-19.65 22.65-15.4 8.85-15.4 8.85 0ZM39.65 0.6L39.65 0.6Q35.15 0.6 32.57-2.2 30-5 30-10.55L30-10.55 30-24.8 35.3-24.8 35.3-11.1Q35.3-3.9 41.2-3.9L41.2-3.9Q44.15-3.9 46.05-6 47.95-8.1 47.95-12L47.95-12 47.95-24.8 53.25-24.8 53.25 0 48.55 0 48.15-4.35Q47-2.05 44.77-0.73 42.55 0.6 39.65 0.6ZM69.9 0.6L69.9 0.6Q65.2 0.6 62.15-1.7 59.1-4 58.65-7.8L58.65-7.8 64-7.8Q64.4-6.1 65.9-4.88 67.4-3.65 69.84-3.65L69.84-3.65Q72.25-3.65 73.34-4.65 74.45-5.65 74.45-6.95L74.45-6.95Q74.45-8.85 72.92-9.53 71.4-10.2 68.7-10.75L68.7-10.75Q66.59-11.2 64.52-11.95 62.45-12.7 61.07-14.08 59.7-15.45 59.7-17.8L59.7-17.8Q59.7-21.05 62.2-23.23 64.7-25.4 69.2-25.4L69.2-25.4Q73.34-25.4 75.92-23.4 78.5-21.4 78.95-17.75L78.95-17.75 73.84-17.75Q73.59-19.35 72.37-20.25 71.15-21.15 69.09-21.15L69.09-21.15Q67.09-21.15 66-20.33 64.9-19.5 64.9-18.2L64.9-18.2Q64.9-16.9 66.42-16.15 67.95-15.4 70.45-14.8L70.45-14.8Q72.95-14.25 75.07-13.53 77.2-12.8 78.5-11.4 79.8-10 79.8-7.3L79.8-7.3Q79.84-3.9 77.17-1.65 74.5 0.6 69.9 0.6ZM90.89 0L85.59 0 85.59-36 90.89-36 90.89-20.8Q92.14-22.95 94.37-24.18 96.59-25.4 99.29-25.4L99.29-25.4Q103.74-25.4 106.29-22.6 108.84-19.8 108.84-14.25L108.84-14.25 108.84 0 103.59 0 103.59-13.7Q103.59-20.9 97.84-20.9L97.84-20.9Q94.84-20.9 92.87-18.8 90.89-16.7 90.89-12.8L90.89-12.8 90.89 0ZM118.09-29.5L118.09-29.5Q116.59-29.5 115.62-30.43 114.64-31.35 114.64-32.75L114.64-32.75Q114.64-34.15 115.62-35.08 116.59-36 118.09-36L118.09-36Q119.59-36 120.57-35.08 121.54-34.15 121.54-32.75L121.54-32.75Q121.54-31.35 120.57-30.43 119.59-29.5 118.09-29.5ZM120.74 0L115.44 0 115.44-24.8 120.74-24.8 120.74 0Z" opacity="1" transform="matrix(1,0,0,1,0,0)" fill="#ffffff" class="wordmark-text-0" data-fill-palette-color="primary" id="text-0"></path></svg></g></svg></g></svg></g></svg></g></svg></g></svg></g></svg></g><path d="M209.887 79.692L209.887 23.822 10.331 23.822 10.331 223.378 209.887 223.378 209.887 167.508 203.049 167.508 203.049 216.541 17.168 216.541 17.168 30.659 203.049 30.659 203.049 79.692Z" fill="#ffffff" stroke="transparent" data-fill-palette-color="primary"></path></svg></g><defs></defs></svg><rect width="395.52" height="247.2" fill="none" stroke="none" visibility="hidden"></rect></g></svg></g></svg>